<svg viewBox="0 0 100 100" version="1.1" xmlns="http://www.w3.org/2000/svg">
    <path d="M49.5,6 C73.52,6 93,25.476 93,49.5 C93,73.52 73.524,93 49.5,93 C25.48,93 6,73.524 6,49.5 C6,25.48 25.476,6 49.5,6 L49.5,6 Z M30.3,15.08 C27.116,16.828 24.112,19.047 21.414,21.744 C18.716,24.442 16.498,27.413 14.75,30.596 L35.273,42.433 C35.026,42.929 34.805,43.433 34.61,43.958 C34.593,44.004 34.561,44.045 34.544,44.091 C34.524,44.147 34.497,44.2 34.478,44.257 C34.353,44.616 34.246,44.981 34.146,45.351 C34.075,45.605 34.005,45.855 33.947,46.114 C33.836,46.609 33.744,47.094 33.682,47.606 L33.682,47.739 C33.652,48.003 33.632,48.266 33.616,48.535 C33.597,48.855 33.583,49.171 33.583,49.497 C33.583,58.286 40.708,65.412 49.498,65.412 C50.116,65.412 50.722,65.381 51.321,65.312 L51.354,65.312 C51.823,65.259 52.258,65.173 52.713,65.08 C53.231,64.973 53.74,64.837 54.238,64.682 C54.709,64.535 55.179,64.373 55.631,64.185 C55.686,64.16 55.742,64.142 55.797,64.118 C56.019,64.022 56.244,63.925 56.46,63.82 L68.064,83.91 C71.248,82.162 74.252,79.944 76.95,77.246 C79.648,74.548 81.866,71.577 83.614,68.393 L63.621,56.822 C63.791,56.496 63.938,56.167 64.085,55.827 C64.119,55.75 64.152,55.673 64.185,55.595 C64.369,55.153 64.538,54.697 64.682,54.236 C64.834,53.75 64.974,53.249 65.08,52.744 C65.091,52.712 65.069,52.676 65.08,52.644 C65.129,52.401 65.174,52.161 65.213,51.915 C65.236,51.762 65.261,51.605 65.279,51.451 C65.313,51.177 65.359,50.901 65.379,50.622 C65.404,50.253 65.412,49.87 65.412,49.495 C65.412,48.946 65.4,48.405 65.346,47.87 C64.531,39.85 57.738,33.58 49.498,33.58 C49.161,33.58 48.835,33.594 48.503,33.613 L48.37,33.613 C48.081,33.633 47.793,33.676 47.508,33.713 C47.44,33.724 47.377,33.737 47.309,33.746 C46.962,33.793 46.621,33.842 46.281,33.912 C46.051,33.959 45.811,34.021 45.585,34.078 C45.372,34.132 45.165,34.215 44.955,34.277 C44.857,34.305 44.753,34.313 44.657,34.343 C44.188,34.493 43.747,34.65 43.298,34.84 C42.872,35.021 42.444,35.221 42.038,35.437 L30.301,15.08 L30.3,15.08 Z M49.5,37.825 C55.946,37.825 61.171,43.05 61.171,49.496 C61.171,55.942 55.946,61.167 49.5,61.167 C43.054,61.167 37.829,55.942 37.829,49.496 C37.829,43.05 43.054,37.825 49.5,37.825 L49.5,37.825 Z M49.5,42.069 C45.398,42.069 42.073,45.394 42.073,49.496 C42.073,53.598 45.398,56.923 49.5,56.923 C53.602,56.923 56.927,53.598 56.927,49.496 C56.927,45.394 53.602,42.069 49.5,42.069 L49.5,42.069 Z" fill="#5F755E"></path>
    <text transform="translate(66.764974, 30.260417) rotate(45.000000) translate(-66.764974, -30.260417) " font-family="Gill Sans" font-size="14" font-weight="bold" fill="#F4F0F5">
        <tspan x="49.2752279" y="35.2604167">Boot</tspan>
    </text>
    <text transform="translate(30.895591, 67.895591) rotate(45.000000) translate(-30.895591, -67.895591) " font-family="Gill Sans" font-size="14" font-weight="bold" fill="#F4F0F5">
        <tspan x="11.2559425" y="72.8955909">Force</tspan>
    </text>
</svg>
